<mxfile host="Electron" agent="Mozilla/5.0 (Windows NT 10.0; Win64; x64) AppleWebKit/537.36 (KHTML, like Gecko) draw.io/26.0.4 Chrome/128.0.6613.186 Electron/32.2.5 Safari/537.36" version="26.0.4">
  <diagram name="Page-1" id="wpo6pH9h_UGoqc0hWLJB">
    <mxGraphModel dx="1122" dy="540" grid="1" gridSize="10" guides="1" tooltips="1" connect="1" arrows="1" fold="1" page="1" pageScale="1" pageWidth="1654" pageHeight="1169" math="0" shadow="0">
      <root>
        <mxCell id="0" />
        <mxCell id="1" parent="0" />
        <mxCell id="Eh5i6RQsvHjzvKxQQVtU-41" style="edgeStyle=orthogonalEdgeStyle;rounded=0;orthogonalLoop=1;jettySize=auto;html=1;exitDx=0;exitDy=0;entryX=0;entryY=0;entryDx=0;entryDy=0;" parent="1" source="Eh5i6RQsvHjzvKxQQVtU-31" target="Eh5i6RQsvHjzvKxQQVtU-19" edge="1">
          <mxGeometry relative="1" as="geometry" />
        </mxCell>
        <mxCell id="Eh5i6RQsvHjzvKxQQVtU-47" style="edgeStyle=orthogonalEdgeStyle;rounded=0;orthogonalLoop=1;jettySize=auto;html=1;exitX=0.5;exitY=0;exitDx=0;exitDy=0;entryX=0;entryY=0;entryDx=0;entryDy=0;" parent="1" source="Eh5i6RQsvHjzvKxQQVtU-1" target="Eh5i6RQsvHjzvKxQQVtU-20" edge="1">
          <mxGeometry relative="1" as="geometry">
            <Array as="points">
              <mxPoint x="300" y="180" />
              <mxPoint x="300" y="240" />
              <mxPoint x="370" y="240" />
              <mxPoint x="370" y="292" />
            </Array>
          </mxGeometry>
        </mxCell>
        <mxCell id="Eh5i6RQsvHjzvKxQQVtU-1" value="" style="shape=trapezoid;perimeter=trapezoidPerimeter;whiteSpace=wrap;html=1;fixedSize=1;rotation=90;" parent="1" vertex="1">
          <mxGeometry x="155" y="160" width="90" height="40" as="geometry" />
        </mxCell>
        <mxCell id="Eh5i6RQsvHjzvKxQQVtU-51" style="edgeStyle=orthogonalEdgeStyle;rounded=0;orthogonalLoop=1;jettySize=auto;html=1;exitX=0.5;exitY=0;exitDx=0;exitDy=0;entryX=0;entryY=1;entryDx=0;entryDy=0;" parent="1" source="Eh5i6RQsvHjzvKxQQVtU-2" target="Eh5i6RQsvHjzvKxQQVtU-19" edge="1">
          <mxGeometry relative="1" as="geometry">
            <Array as="points">
              <mxPoint x="300" y="330" />
              <mxPoint x="300" y="260" />
              <mxPoint x="350" y="260" />
              <mxPoint x="350" y="198" />
            </Array>
          </mxGeometry>
        </mxCell>
        <mxCell id="Eh5i6RQsvHjzvKxQQVtU-2" value="" style="shape=trapezoid;perimeter=trapezoidPerimeter;whiteSpace=wrap;html=1;fixedSize=1;rotation=90;" parent="1" vertex="1">
          <mxGeometry x="155" y="310" width="90" height="40" as="geometry" />
        </mxCell>
        <mxCell id="Eh5i6RQsvHjzvKxQQVtU-3" value="" style="endArrow=classic;html=1;rounded=0;" parent="1" edge="1">
          <mxGeometry width="50" height="50" relative="1" as="geometry">
            <mxPoint x="100" y="159" as="sourcePoint" />
            <mxPoint x="180" y="159" as="targetPoint" />
          </mxGeometry>
        </mxCell>
        <mxCell id="Eh5i6RQsvHjzvKxQQVtU-4" value="" style="endArrow=classic;html=1;rounded=0;" parent="1" edge="1">
          <mxGeometry width="50" height="50" relative="1" as="geometry">
            <mxPoint x="100" y="309.5" as="sourcePoint" />
            <mxPoint x="180" y="309.5" as="targetPoint" />
          </mxGeometry>
        </mxCell>
        <mxCell id="Eh5i6RQsvHjzvKxQQVtU-7" value="&lt;font style=&quot;font-size: 14px;&quot;&gt;0&lt;/font&gt;" style="text;html=1;align=center;verticalAlign=middle;whiteSpace=wrap;rounded=0;" parent="1" vertex="1">
          <mxGeometry x="190" y="150" width="20" height="20" as="geometry" />
        </mxCell>
        <mxCell id="Eh5i6RQsvHjzvKxQQVtU-8" value="&lt;font style=&quot;font-size: 14px;&quot;&gt;1&lt;/font&gt;" style="text;html=1;align=center;verticalAlign=middle;whiteSpace=wrap;rounded=0;" parent="1" vertex="1">
          <mxGeometry x="190" y="190" width="20" height="20" as="geometry" />
        </mxCell>
        <mxCell id="Eh5i6RQsvHjzvKxQQVtU-9" value="&lt;font style=&quot;font-size: 14px;&quot;&gt;0&lt;/font&gt;" style="text;html=1;align=center;verticalAlign=middle;whiteSpace=wrap;rounded=0;" parent="1" vertex="1">
          <mxGeometry x="190" y="300" width="20" height="20" as="geometry" />
        </mxCell>
        <mxCell id="Eh5i6RQsvHjzvKxQQVtU-10" value="&lt;font style=&quot;font-size: 14px;&quot;&gt;1&lt;/font&gt;" style="text;html=1;align=center;verticalAlign=middle;whiteSpace=wrap;rounded=0;" parent="1" vertex="1">
          <mxGeometry x="190" y="340" width="20" height="20" as="geometry" />
        </mxCell>
        <mxCell id="Eh5i6RQsvHjzvKxQQVtU-11" value="c0 [27:0]" style="text;html=1;align=center;verticalAlign=middle;whiteSpace=wrap;rounded=0;" parent="1" vertex="1">
          <mxGeometry x="95" y="130" width="60" height="30" as="geometry" />
        </mxCell>
        <mxCell id="Eh5i6RQsvHjzvKxQQVtU-12" value="d0 [27:0]" style="text;html=1;align=center;verticalAlign=middle;whiteSpace=wrap;rounded=0;" parent="1" vertex="1">
          <mxGeometry x="95" y="280" width="60" height="30" as="geometry" />
        </mxCell>
        <mxCell id="Eh5i6RQsvHjzvKxQQVtU-13" value="cn [27:0]" style="text;html=1;align=center;verticalAlign=middle;whiteSpace=wrap;rounded=0;" parent="1" vertex="1">
          <mxGeometry x="95" y="170" width="60" height="30" as="geometry" />
        </mxCell>
        <mxCell id="Eh5i6RQsvHjzvKxQQVtU-14" value="dn [27:0]" style="text;html=1;align=center;verticalAlign=middle;whiteSpace=wrap;rounded=0;" parent="1" vertex="1">
          <mxGeometry x="95" y="320" width="60" height="30" as="geometry" />
        </mxCell>
        <mxCell id="Eh5i6RQsvHjzvKxQQVtU-17" style="edgeStyle=orthogonalEdgeStyle;rounded=0;orthogonalLoop=1;jettySize=auto;html=1;exitX=1;exitY=0.5;exitDx=0;exitDy=0;" parent="1" source="Eh5i6RQsvHjzvKxQQVtU-16" target="Eh5i6RQsvHjzvKxQQVtU-1" edge="1">
          <mxGeometry relative="1" as="geometry" />
        </mxCell>
        <mxCell id="Eh5i6RQsvHjzvKxQQVtU-18" style="edgeStyle=orthogonalEdgeStyle;rounded=0;orthogonalLoop=1;jettySize=auto;html=1;exitX=1;exitY=0.5;exitDx=0;exitDy=0;entryX=0;entryY=0.5;entryDx=0;entryDy=0;" parent="1" target="Eh5i6RQsvHjzvKxQQVtU-2" edge="1">
          <mxGeometry relative="1" as="geometry">
            <mxPoint x="155" y="95" as="sourcePoint" />
            <mxPoint x="240.49019607843138" y="297.7450980392157" as="targetPoint" />
            <Array as="points">
              <mxPoint x="230" y="95" />
              <mxPoint x="230" y="250" />
              <mxPoint x="200" y="250" />
            </Array>
          </mxGeometry>
        </mxCell>
        <mxCell id="Eh5i6RQsvHjzvKxQQVtU-16" value="rkey_sel" style="text;html=1;align=center;verticalAlign=middle;whiteSpace=wrap;rounded=0;" parent="1" vertex="1">
          <mxGeometry x="60" y="80" width="60" height="30" as="geometry" />
        </mxCell>
        <mxCell id="Tghl29447VVMWk6O5qag-2" style="edgeStyle=orthogonalEdgeStyle;rounded=0;orthogonalLoop=1;jettySize=auto;html=1;exitX=1;exitY=1;exitDx=0;exitDy=0;entryX=0.25;entryY=1;entryDx=0;entryDy=0;" edge="1" parent="1" source="Eh5i6RQsvHjzvKxQQVtU-19" target="Eh5i6RQsvHjzvKxQQVtU-36">
          <mxGeometry relative="1" as="geometry">
            <Array as="points">
              <mxPoint x="480" y="198" />
              <mxPoint x="480" y="260" />
              <mxPoint x="530" y="260" />
              <mxPoint x="530" y="308" />
            </Array>
          </mxGeometry>
        </mxCell>
        <mxCell id="Eh5i6RQsvHjzvKxQQVtU-19" value="" style="ellipse;whiteSpace=wrap;html=1;aspect=fixed;" parent="1" vertex="1">
          <mxGeometry x="380" y="130" width="80" height="80" as="geometry" />
        </mxCell>
        <mxCell id="Tghl29447VVMWk6O5qag-4" style="edgeStyle=orthogonalEdgeStyle;rounded=0;orthogonalLoop=1;jettySize=auto;html=1;exitX=1;exitY=0;exitDx=0;exitDy=0;entryX=0.75;entryY=1;entryDx=0;entryDy=0;" edge="1" parent="1" source="Eh5i6RQsvHjzvKxQQVtU-20" target="Eh5i6RQsvHjzvKxQQVtU-35">
          <mxGeometry relative="1" as="geometry">
            <Array as="points">
              <mxPoint x="510" y="292" />
              <mxPoint x="510" y="203" />
            </Array>
          </mxGeometry>
        </mxCell>
        <mxCell id="Tghl29447VVMWk6O5qag-5" style="edgeStyle=orthogonalEdgeStyle;rounded=0;orthogonalLoop=1;jettySize=auto;html=1;exitX=1;exitY=1;exitDx=0;exitDy=0;entryX=0.75;entryY=1;entryDx=0;entryDy=0;" edge="1" parent="1" source="Eh5i6RQsvHjzvKxQQVtU-20" target="Eh5i6RQsvHjzvKxQQVtU-36">
          <mxGeometry relative="1" as="geometry">
            <Array as="points">
              <mxPoint x="530" y="348" />
              <mxPoint x="530" y="353" />
            </Array>
          </mxGeometry>
        </mxCell>
        <mxCell id="Eh5i6RQsvHjzvKxQQVtU-20" value="" style="ellipse;whiteSpace=wrap;html=1;aspect=fixed;" parent="1" vertex="1">
          <mxGeometry x="380" y="280" width="80" height="80" as="geometry" />
        </mxCell>
        <mxCell id="Eh5i6RQsvHjzvKxQQVtU-21" value="Left_Shift 1 bit" style="text;html=1;align=center;verticalAlign=middle;whiteSpace=wrap;rounded=0;" parent="1" vertex="1">
          <mxGeometry x="390" y="155" width="60" height="30" as="geometry" />
        </mxCell>
        <mxCell id="Eh5i6RQsvHjzvKxQQVtU-22" value="Left_Shift 2 bits" style="text;html=1;align=center;verticalAlign=middle;whiteSpace=wrap;rounded=0;" parent="1" vertex="1">
          <mxGeometry x="390" y="305" width="60" height="30" as="geometry" />
        </mxCell>
        <mxCell id="Eh5i6RQsvHjzvKxQQVtU-27" value="c_in [27:0]" style="text;html=1;align=center;verticalAlign=middle;whiteSpace=wrap;rounded=0;" parent="1" vertex="1">
          <mxGeometry x="240" y="155" width="60" height="30" as="geometry" />
        </mxCell>
        <mxCell id="Eh5i6RQsvHjzvKxQQVtU-28" value="d_in [27:0]" style="text;html=1;align=center;verticalAlign=middle;whiteSpace=wrap;rounded=0;" parent="1" vertex="1">
          <mxGeometry x="240" y="305" width="60" height="30" as="geometry" />
        </mxCell>
        <mxCell id="Eh5i6RQsvHjzvKxQQVtU-75" style="edgeStyle=orthogonalEdgeStyle;rounded=0;orthogonalLoop=1;jettySize=auto;html=1;exitX=0.5;exitY=0;exitDx=0;exitDy=0;entryX=0.25;entryY=1;entryDx=0;entryDy=0;" parent="1" source="Eh5i6RQsvHjzvKxQQVtU-35" target="Eh5i6RQsvHjzvKxQQVtU-69" edge="1">
          <mxGeometry relative="1" as="geometry" />
        </mxCell>
        <mxCell id="Eh5i6RQsvHjzvKxQQVtU-35" value="" style="shape=trapezoid;perimeter=trapezoidPerimeter;whiteSpace=wrap;html=1;fixedSize=1;rotation=90;" parent="1" vertex="1">
          <mxGeometry x="610" y="160" width="90" height="40" as="geometry" />
        </mxCell>
        <mxCell id="Eh5i6RQsvHjzvKxQQVtU-32" value="&lt;font style=&quot;font-size: 14px;&quot;&gt;1&lt;/font&gt;" style="text;html=1;align=center;verticalAlign=middle;whiteSpace=wrap;rounded=0;" parent="1" vertex="1">
          <mxGeometry x="645" y="150" width="20" height="20" as="geometry" />
        </mxCell>
        <mxCell id="Eh5i6RQsvHjzvKxQQVtU-33" value="&lt;font style=&quot;font-size: 14px;&quot;&gt;0&lt;/font&gt;" style="text;html=1;align=center;verticalAlign=middle;whiteSpace=wrap;rounded=0;" parent="1" vertex="1">
          <mxGeometry x="645" y="190" width="20" height="20" as="geometry" />
        </mxCell>
        <mxCell id="Eh5i6RQsvHjzvKxQQVtU-76" style="edgeStyle=orthogonalEdgeStyle;rounded=0;orthogonalLoop=1;jettySize=auto;html=1;exitX=0.5;exitY=0;exitDx=0;exitDy=0;entryX=0.25;entryY=1;entryDx=0;entryDy=0;" parent="1" source="Eh5i6RQsvHjzvKxQQVtU-36" target="Eh5i6RQsvHjzvKxQQVtU-70" edge="1">
          <mxGeometry relative="1" as="geometry" />
        </mxCell>
        <mxCell id="Eh5i6RQsvHjzvKxQQVtU-36" value="" style="shape=trapezoid;perimeter=trapezoidPerimeter;whiteSpace=wrap;html=1;fixedSize=1;rotation=90;" parent="1" vertex="1">
          <mxGeometry x="610" y="310" width="90" height="40" as="geometry" />
        </mxCell>
        <mxCell id="Eh5i6RQsvHjzvKxQQVtU-37" value="&lt;font style=&quot;font-size: 14px;&quot;&gt;0&lt;/font&gt;" style="text;html=1;align=center;verticalAlign=middle;whiteSpace=wrap;rounded=0;" parent="1" vertex="1">
          <mxGeometry x="645" y="340" width="20" height="20" as="geometry" />
        </mxCell>
        <mxCell id="Eh5i6RQsvHjzvKxQQVtU-38" value="&lt;font style=&quot;font-size: 14px;&quot;&gt;1&lt;/font&gt;" style="text;html=1;align=center;verticalAlign=middle;whiteSpace=wrap;rounded=0;" parent="1" vertex="1">
          <mxGeometry x="645" y="300" width="20" height="20" as="geometry" />
        </mxCell>
        <mxCell id="Eh5i6RQsvHjzvKxQQVtU-31" value="" style="shape=waypoint;sketch=0;fillStyle=solid;size=6;pointerEvents=1;points=[];fillColor=none;resizable=0;rotatable=0;perimeter=centerPerimeter;snapToPoint=1;" parent="1" vertex="1">
          <mxGeometry x="290" y="170" width="20" height="20" as="geometry" />
        </mxCell>
        <mxCell id="Eh5i6RQsvHjzvKxQQVtU-45" value="" style="endArrow=none;html=1;rounded=0;entryX=0.5;entryY=0;entryDx=0;entryDy=0;exitX=0.736;exitY=0.564;exitDx=0;exitDy=0;exitPerimeter=0;" parent="1" source="Eh5i6RQsvHjzvKxQQVtU-31" target="Eh5i6RQsvHjzvKxQQVtU-1" edge="1">
          <mxGeometry width="50" height="50" relative="1" as="geometry">
            <mxPoint x="450" y="250" as="sourcePoint" />
            <mxPoint x="500" y="200" as="targetPoint" />
          </mxGeometry>
        </mxCell>
        <mxCell id="Eh5i6RQsvHjzvKxQQVtU-48" style="edgeStyle=orthogonalEdgeStyle;rounded=0;orthogonalLoop=1;jettySize=auto;html=1;exitDx=0;exitDy=0;entryX=0;entryY=0.629;entryDx=0;entryDy=0;entryPerimeter=0;" parent="1" source="Eh5i6RQsvHjzvKxQQVtU-29" target="Eh5i6RQsvHjzvKxQQVtU-20" edge="1">
          <mxGeometry relative="1" as="geometry" />
        </mxCell>
        <mxCell id="Eh5i6RQsvHjzvKxQQVtU-29" value="" style="shape=waypoint;sketch=0;fillStyle=solid;size=6;pointerEvents=1;points=[];fillColor=none;resizable=0;rotatable=0;perimeter=centerPerimeter;snapToPoint=1;" parent="1" vertex="1">
          <mxGeometry x="290" y="320" width="20" height="20" as="geometry" />
        </mxCell>
        <mxCell id="Eh5i6RQsvHjzvKxQQVtU-50" value="" style="endArrow=none;html=1;rounded=0;exitX=0.5;exitY=0;exitDx=0;exitDy=0;" parent="1" source="Eh5i6RQsvHjzvKxQQVtU-2" target="Eh5i6RQsvHjzvKxQQVtU-29" edge="1">
          <mxGeometry width="50" height="50" relative="1" as="geometry">
            <mxPoint x="450" y="250" as="sourcePoint" />
            <mxPoint x="500" y="200" as="targetPoint" />
          </mxGeometry>
        </mxCell>
        <mxCell id="Eh5i6RQsvHjzvKxQQVtU-62" value="{cin[26:0],cin[27]}" style="text;html=1;align=center;verticalAlign=middle;whiteSpace=wrap;rounded=0;" parent="1" vertex="1">
          <mxGeometry x="550" y="130" width="60" height="30" as="geometry" />
        </mxCell>
        <mxCell id="Eh5i6RQsvHjzvKxQQVtU-63" value="{din[26:0],din[27]}" style="text;html=1;align=center;verticalAlign=middle;whiteSpace=wrap;rounded=0;" parent="1" vertex="1">
          <mxGeometry x="550" y="280" width="60" height="30" as="geometry" />
        </mxCell>
        <mxCell id="Eh5i6RQsvHjzvKxQQVtU-64" value="{cin[25:0],cin[27:26]}" style="text;html=1;align=center;verticalAlign=middle;whiteSpace=wrap;rounded=0;" parent="1" vertex="1">
          <mxGeometry x="540" y="180" width="60" height="30" as="geometry" />
        </mxCell>
        <mxCell id="Eh5i6RQsvHjzvKxQQVtU-65" value="{din[25:0],din[27:26]}" style="text;html=1;align=center;verticalAlign=middle;whiteSpace=wrap;rounded=0;" parent="1" vertex="1">
          <mxGeometry x="550" y="350" width="60" height="30" as="geometry" />
        </mxCell>
        <mxCell id="Eh5i6RQsvHjzvKxQQVtU-67" style="edgeStyle=orthogonalEdgeStyle;rounded=0;orthogonalLoop=1;jettySize=auto;html=1;exitX=1;exitY=0.5;exitDx=0;exitDy=0;" parent="1" source="Eh5i6RQsvHjzvKxQQVtU-66" target="Eh5i6RQsvHjzvKxQQVtU-35" edge="1">
          <mxGeometry relative="1" as="geometry" />
        </mxCell>
        <mxCell id="Eh5i6RQsvHjzvKxQQVtU-68" style="edgeStyle=orthogonalEdgeStyle;rounded=0;orthogonalLoop=1;jettySize=auto;html=1;exitX=1;exitY=0.5;exitDx=0;exitDy=0;entryX=0;entryY=0.5;entryDx=0;entryDy=0;" parent="1" source="Eh5i6RQsvHjzvKxQQVtU-66" target="Eh5i6RQsvHjzvKxQQVtU-36" edge="1">
          <mxGeometry relative="1" as="geometry">
            <Array as="points">
              <mxPoint x="690" y="75" />
              <mxPoint x="690" y="250" />
              <mxPoint x="655" y="250" />
            </Array>
          </mxGeometry>
        </mxCell>
        <mxCell id="Eh5i6RQsvHjzvKxQQVtU-66" value="shift_1" style="text;html=1;align=center;verticalAlign=middle;whiteSpace=wrap;rounded=0;" parent="1" vertex="1">
          <mxGeometry x="60" y="60" width="60" height="30" as="geometry" />
        </mxCell>
        <mxCell id="Eh5i6RQsvHjzvKxQQVtU-69" value="" style="shape=trapezoid;perimeter=trapezoidPerimeter;whiteSpace=wrap;html=1;fixedSize=1;rotation=90;" parent="1" vertex="1">
          <mxGeometry x="700" y="160" width="90" height="40" as="geometry" />
        </mxCell>
        <mxCell id="Eh5i6RQsvHjzvKxQQVtU-82" style="edgeStyle=orthogonalEdgeStyle;rounded=0;orthogonalLoop=1;jettySize=auto;html=1;exitX=0.5;exitY=0;exitDx=0;exitDy=0;entryX=0.5;entryY=1;entryDx=0;entryDy=0;" parent="1" source="Eh5i6RQsvHjzvKxQQVtU-70" target="Eh5i6RQsvHjzvKxQQVtU-79" edge="1">
          <mxGeometry relative="1" as="geometry" />
        </mxCell>
        <mxCell id="Eh5i6RQsvHjzvKxQQVtU-70" value="" style="shape=trapezoid;perimeter=trapezoidPerimeter;whiteSpace=wrap;html=1;fixedSize=1;rotation=90;" parent="1" vertex="1">
          <mxGeometry x="700" y="310" width="90" height="40" as="geometry" />
        </mxCell>
        <mxCell id="Eh5i6RQsvHjzvKxQQVtU-71" value="&lt;font style=&quot;font-size: 14px;&quot;&gt;1&lt;/font&gt;" style="text;html=1;align=center;verticalAlign=middle;whiteSpace=wrap;rounded=0;" parent="1" vertex="1">
          <mxGeometry x="735" y="150" width="20" height="20" as="geometry" />
        </mxCell>
        <mxCell id="Eh5i6RQsvHjzvKxQQVtU-72" value="&lt;font style=&quot;font-size: 14px;&quot;&gt;0&lt;/font&gt;" style="text;html=1;align=center;verticalAlign=middle;whiteSpace=wrap;rounded=0;" parent="1" vertex="1">
          <mxGeometry x="735" y="190" width="20" height="20" as="geometry" />
        </mxCell>
        <mxCell id="Eh5i6RQsvHjzvKxQQVtU-73" value="&lt;font style=&quot;font-size: 14px;&quot;&gt;1&lt;/font&gt;" style="text;html=1;align=center;verticalAlign=middle;whiteSpace=wrap;rounded=0;" parent="1" vertex="1">
          <mxGeometry x="735" y="300" width="20" height="20" as="geometry" />
        </mxCell>
        <mxCell id="Eh5i6RQsvHjzvKxQQVtU-74" value="&lt;span style=&quot;font-size: 14px;&quot;&gt;0&lt;/span&gt;" style="text;html=1;align=center;verticalAlign=middle;whiteSpace=wrap;rounded=0;" parent="1" vertex="1">
          <mxGeometry x="735" y="340" width="20" height="20" as="geometry" />
        </mxCell>
        <mxCell id="Eh5i6RQsvHjzvKxQQVtU-84" style="edgeStyle=orthogonalEdgeStyle;rounded=0;orthogonalLoop=1;jettySize=auto;html=1;exitX=0.5;exitY=0;exitDx=0;exitDy=0;entryX=0.75;entryY=1;entryDx=0;entryDy=0;" parent="1" source="Eh5i6RQsvHjzvKxQQVtU-77" target="Eh5i6RQsvHjzvKxQQVtU-69" edge="1">
          <mxGeometry relative="1" as="geometry">
            <Array as="points">
              <mxPoint x="847" y="180" />
              <mxPoint x="867" y="180" />
              <mxPoint x="867" y="230" />
              <mxPoint x="700" y="230" />
              <mxPoint x="700" y="203" />
            </Array>
          </mxGeometry>
        </mxCell>
        <mxCell id="Eh5i6RQsvHjzvKxQQVtU-77" value="" style="rounded=0;whiteSpace=wrap;html=1;rotation=90;" parent="1" vertex="1">
          <mxGeometry x="792" y="155" width="70" height="40" as="geometry" />
        </mxCell>
        <mxCell id="Eh5i6RQsvHjzvKxQQVtU-78" value="" style="triangle;whiteSpace=wrap;html=1;rotation=90;" parent="1" vertex="1">
          <mxGeometry x="816" y="130" width="23" height="40" as="geometry" />
        </mxCell>
        <mxCell id="Eh5i6RQsvHjzvKxQQVtU-85" style="edgeStyle=orthogonalEdgeStyle;rounded=0;orthogonalLoop=1;jettySize=auto;html=1;exitX=0.5;exitY=0;exitDx=0;exitDy=0;entryX=0.75;entryY=1;entryDx=0;entryDy=0;" parent="1" source="Eh5i6RQsvHjzvKxQQVtU-79" target="Eh5i6RQsvHjzvKxQQVtU-70" edge="1">
          <mxGeometry relative="1" as="geometry">
            <Array as="points">
              <mxPoint x="868" y="330" />
              <mxPoint x="868" y="390" />
              <mxPoint x="700" y="390" />
              <mxPoint x="700" y="353" />
            </Array>
          </mxGeometry>
        </mxCell>
        <mxCell id="Eh5i6RQsvHjzvKxQQVtU-86" style="edgeStyle=orthogonalEdgeStyle;rounded=0;orthogonalLoop=1;jettySize=auto;html=1;exitX=0.5;exitY=0;exitDx=0;exitDy=0;entryX=0.75;entryY=1;entryDx=0;entryDy=0;" parent="1" source="Eh5i6RQsvHjzvKxQQVtU-79" target="Eh5i6RQsvHjzvKxQQVtU-2" edge="1">
          <mxGeometry relative="1" as="geometry">
            <Array as="points">
              <mxPoint x="868" y="330" />
              <mxPoint x="868" y="390" />
              <mxPoint x="90" y="390" />
              <mxPoint x="90" y="353" />
            </Array>
          </mxGeometry>
        </mxCell>
        <mxCell id="Eh5i6RQsvHjzvKxQQVtU-79" value="" style="rounded=0;whiteSpace=wrap;html=1;rotation=90;" parent="1" vertex="1">
          <mxGeometry x="792.5" y="310" width="70" height="40" as="geometry" />
        </mxCell>
        <mxCell id="Eh5i6RQsvHjzvKxQQVtU-80" value="" style="triangle;whiteSpace=wrap;html=1;rotation=90;" parent="1" vertex="1">
          <mxGeometry x="816.5" y="285" width="23" height="40" as="geometry" />
        </mxCell>
        <mxCell id="Eh5i6RQsvHjzvKxQQVtU-83" style="edgeStyle=orthogonalEdgeStyle;rounded=0;orthogonalLoop=1;jettySize=auto;html=1;exitX=0.5;exitY=0;exitDx=0;exitDy=0;entryX=0.576;entryY=0.925;entryDx=0;entryDy=0;entryPerimeter=0;" parent="1" source="Eh5i6RQsvHjzvKxQQVtU-69" target="Eh5i6RQsvHjzvKxQQVtU-77" edge="1">
          <mxGeometry relative="1" as="geometry" />
        </mxCell>
        <mxCell id="Eh5i6RQsvHjzvKxQQVtU-90" style="edgeStyle=orthogonalEdgeStyle;rounded=0;orthogonalLoop=1;jettySize=auto;html=1;exitX=0.5;exitY=0;exitDx=0;exitDy=0;entryX=0.698;entryY=1.025;entryDx=0;entryDy=0;entryPerimeter=0;" parent="1" source="Eh5i6RQsvHjzvKxQQVtU-77" target="Eh5i6RQsvHjzvKxQQVtU-1" edge="1">
          <mxGeometry relative="1" as="geometry">
            <Array as="points">
              <mxPoint x="847" y="180" />
              <mxPoint x="867" y="180" />
              <mxPoint x="867" y="230" />
              <mxPoint x="100" y="230" />
              <mxPoint x="100" y="198" />
            </Array>
          </mxGeometry>
        </mxCell>
        <mxCell id="Eh5i6RQsvHjzvKxQQVtU-91" value="" style="shape=waypoint;sketch=0;fillStyle=solid;size=6;pointerEvents=1;points=[];fillColor=none;resizable=0;rotatable=0;perimeter=centerPerimeter;snapToPoint=1;" parent="1" vertex="1">
          <mxGeometry x="690" y="380" width="20" height="20" as="geometry" />
        </mxCell>
        <mxCell id="Eh5i6RQsvHjzvKxQQVtU-92" value="" style="shape=waypoint;sketch=0;fillStyle=solid;size=6;pointerEvents=1;points=[];fillColor=none;resizable=0;rotatable=0;perimeter=centerPerimeter;snapToPoint=1;" parent="1" vertex="1">
          <mxGeometry x="690" y="220" width="20" height="20" as="geometry" />
        </mxCell>
        <mxCell id="Eh5i6RQsvHjzvKxQQVtU-95" value="" style="endArrow=none;html=1;rounded=0;exitX=0.5;exitY=0;exitDx=0;exitDy=0;" parent="1" source="Eh5i6RQsvHjzvKxQQVtU-79" edge="1">
          <mxGeometry width="50" height="50" relative="1" as="geometry">
            <mxPoint x="910" y="305" as="sourcePoint" />
            <mxPoint x="910" y="330" as="targetPoint" />
          </mxGeometry>
        </mxCell>
        <mxCell id="Eh5i6RQsvHjzvKxQQVtU-96" value="" style="endArrow=none;html=1;rounded=0;" parent="1" edge="1">
          <mxGeometry width="50" height="50" relative="1" as="geometry">
            <mxPoint x="909.2" y="330" as="sourcePoint" />
            <mxPoint x="909.2" y="180" as="targetPoint" />
          </mxGeometry>
        </mxCell>
        <mxCell id="Eh5i6RQsvHjzvKxQQVtU-98" value="" style="endArrow=none;html=1;rounded=0;exitX=0.564;exitY=-0.03;exitDx=0;exitDy=0;exitPerimeter=0;" parent="1" source="Eh5i6RQsvHjzvKxQQVtU-77" edge="1">
          <mxGeometry width="50" height="50" relative="1" as="geometry">
            <mxPoint x="870" y="180" as="sourcePoint" />
            <mxPoint x="910" y="180" as="targetPoint" />
          </mxGeometry>
        </mxCell>
        <mxCell id="Eh5i6RQsvHjzvKxQQVtU-99" value="" style="endArrow=classic;html=1;rounded=0;" parent="1" edge="1">
          <mxGeometry width="50" height="50" relative="1" as="geometry">
            <mxPoint x="910" y="270" as="sourcePoint" />
            <mxPoint x="1030" y="270" as="targetPoint" />
          </mxGeometry>
        </mxCell>
        <mxCell id="Eh5i6RQsvHjzvKxQQVtU-100" value="cn_dn [55:0]" style="text;html=1;align=center;verticalAlign=middle;whiteSpace=wrap;rounded=0;" parent="1" vertex="1">
          <mxGeometry x="920" y="240" width="70" height="30" as="geometry" />
        </mxCell>
        <mxCell id="Eh5i6RQsvHjzvKxQQVtU-103" style="edgeStyle=orthogonalEdgeStyle;rounded=0;orthogonalLoop=1;jettySize=auto;html=1;exitX=1;exitY=0.5;exitDx=0;exitDy=0;" parent="1" source="Eh5i6RQsvHjzvKxQQVtU-101" target="Eh5i6RQsvHjzvKxQQVtU-69" edge="1">
          <mxGeometry relative="1" as="geometry" />
        </mxCell>
        <mxCell id="Eh5i6RQsvHjzvKxQQVtU-104" style="edgeStyle=orthogonalEdgeStyle;rounded=0;orthogonalLoop=1;jettySize=auto;html=1;exitX=1;exitY=0.5;exitDx=0;exitDy=0;" parent="1" source="Eh5i6RQsvHjzvKxQQVtU-101" target="Eh5i6RQsvHjzvKxQQVtU-70" edge="1">
          <mxGeometry relative="1" as="geometry">
            <Array as="points">
              <mxPoint x="780" y="55" />
              <mxPoint x="780" y="260" />
              <mxPoint x="745" y="260" />
            </Array>
          </mxGeometry>
        </mxCell>
        <mxCell id="Eh5i6RQsvHjzvKxQQVtU-101" value="key_process" style="text;html=1;align=center;verticalAlign=middle;whiteSpace=wrap;rounded=0;" parent="1" vertex="1">
          <mxGeometry x="35" y="40" width="85" height="30" as="geometry" />
        </mxCell>
        <mxCell id="Eh5i6RQsvHjzvKxQQVtU-106" value="cn [27:0]" style="text;html=1;align=center;verticalAlign=middle;whiteSpace=wrap;rounded=0;" parent="1" vertex="1">
          <mxGeometry x="850" y="155" width="60" height="30" as="geometry" />
        </mxCell>
        <mxCell id="Eh5i6RQsvHjzvKxQQVtU-107" value="dn [27:0]" style="text;html=1;align=center;verticalAlign=middle;whiteSpace=wrap;rounded=0;" parent="1" vertex="1">
          <mxGeometry x="850" y="305" width="60" height="30" as="geometry" />
        </mxCell>
        <mxCell id="Tghl29447VVMWk6O5qag-1" style="edgeStyle=orthogonalEdgeStyle;rounded=0;orthogonalLoop=1;jettySize=auto;html=1;exitX=1;exitY=0;exitDx=0;exitDy=0;entryX=0.278;entryY=0.875;entryDx=0;entryDy=0;entryPerimeter=0;" edge="1" parent="1" source="Eh5i6RQsvHjzvKxQQVtU-19" target="Eh5i6RQsvHjzvKxQQVtU-35">
          <mxGeometry relative="1" as="geometry">
            <Array as="points">
              <mxPoint x="480" y="142" />
              <mxPoint x="480" y="160" />
            </Array>
          </mxGeometry>
        </mxCell>
      </root>
    </mxGraphModel>
  </diagram>
</mxfile>
